<svg preserveAspectRatio="none" width="100%" height="100%" overflow="visible" style="display: block;" viewBox="0 0 26 17" fill="none" xmlns="http://www.w3.org/2000/svg">
<g id="Vector">
<path fill-rule="evenodd" clip-rule="evenodd" d="M7.52587 0.00148722C8.22839 -0.0114393 8.92991 0.0599395 9.61513 0.214067C10.1921 0.338895 10.7398 0.57118 11.2293 0.898573C11.6813 1.22413 12.039 1.66181 12.2664 2.16767C12.5277 2.78972 12.6538 3.45938 12.6364 4.13297C12.6661 4.87259 12.4755 5.6045 12.0884 6.23751C11.6811 6.83537 11.1181 7.31283 10.4592 7.61928C11.3534 7.85819 12.1323 8.40544 12.6557 9.1626C13.1582 9.96488 13.4108 10.8962 13.3818 11.84C13.3984 12.5926 13.2414 13.3389 12.9228 14.0222C12.6283 14.6182 12.1971 15.1377 11.6636 15.5389C11.1145 15.9358 10.4965 16.2294 9.84036 16.4052C9.15996 16.5917 8.45706 16.6854 7.7511 16.6837H0V0.00148722H7.52587ZM7.07863 6.74876C7.63061 6.77131 8.17397 6.60755 8.61984 6.28428C8.83337 6.09589 8.99947 5.86061 9.10488 5.59725C9.21028 5.33389 9.25206 5.04974 9.22688 4.76752C9.24117 4.4379 9.17494 4.10973 9.03383 3.81091C8.91412 3.57299 8.72799 3.37415 8.49757 3.23801C8.26418 3.08816 8.00197 2.98791 7.7275 2.94359C7.4297 2.88642 7.12665 2.86041 6.82337 2.866H3.51143V6.76364H7.07863V6.74876ZM7.27168 13.851C7.60549 13.8555 7.93862 13.8198 8.26376 13.7448C8.56089 13.6797 8.84268 13.5589 9.09389 13.3887C9.33999 13.2186 9.53882 12.9898 9.67198 12.7233C9.82637 12.3836 9.89731 12.0124 9.87897 11.6402C9.91245 11.3011 9.86712 10.9588 9.74647 10.6397C9.62581 10.3206 9.43303 10.0331 9.18291 9.79928C8.65276 9.41231 8.00307 9.22062 7.34568 9.2572H3.51143V13.851H7.27168Z" fill="var(--fill-0, white)" fill-opacity="0.5"/>
<path fill-rule="evenodd" clip-rule="evenodd" d="M18.3829 13.7893C18.6586 14.0425 18.9832 14.2375 19.3372 14.3624C19.6912 14.4874 20.0671 14.5398 20.4422 14.5163C21.0367 14.5312 21.6197 14.3519 22.1014 14.0061C22.4932 13.7537 22.7899 13.38 22.9454 12.9432H25.7458C25.4474 14.1867 24.7188 15.2871 23.6866 16.0533C22.6963 16.7047 21.5261 17.0345 20.3381 16.9971C19.4903 17.0082 18.6489 16.8502 17.8638 16.5327C17.1537 16.2392 16.5168 15.7955 15.9977 15.2327C15.4805 14.643 15.0831 13.9598 14.8275 13.2207C14.5406 12.3945 14.4002 11.5253 14.4125 10.6516C14.4073 9.79263 14.5524 8.93923 14.8415 8.12938C15.2299 6.99008 15.9724 6.00198 16.9626 5.3069C17.9529 4.61181 19.1398 4.24547 20.3532 4.26043C21.249 4.24188 22.1348 4.44964 22.9272 4.86416C23.6435 5.25339 24.2614 5.79851 24.7344 6.4585C25.2183 7.15104 25.5651 7.92832 25.7565 8.74905C25.9664 9.63037 26.0412 10.538 25.9785 11.4414H17.6375C17.57 12.2901 17.8372 13.1318 18.3829 13.7893ZM22.0424 7.44488C21.809 7.21351 21.5282 7.0344 21.2191 6.91962C20.9099 6.80484 20.5796 6.75706 20.2502 6.7795C19.8133 6.76299 19.3795 6.85893 18.9911 7.05798C18.6832 7.22597 18.4114 7.452 18.191 7.72335C17.9957 7.97777 17.8501 8.26618 17.762 8.57367C17.6825 8.83013 17.6328 9.09473 17.6139 9.36234H22.7803C22.7353 8.66471 22.4788 7.99678 22.0445 7.44594L22.0424 7.44488Z" fill="var(--fill-0, white)" fill-opacity="0.5"/>
<path d="M16.9479 1.11535H23.4217V2.7554H16.9479V1.11535Z" fill="var(--fill-0, white)" fill-opacity="0.5"/>
</g>
</svg>
