<svg width="1000" height="1280" viewBox="0 0 1000 1280" fill="none" xmlns="http://www.w3.org/2000/svg">
  <rect width="1000" height="1280" fill="#101114"/>
  <rect x="68" y="72" width="864" height="1136" rx="44" fill="#1C1D20"/>
  <rect x="116" y="126" width="344" height="412" rx="26" fill="#D8CFC0"/>
  <rect x="496" y="126" width="388" height="226" rx="26" fill="#B16645"/>
  <rect x="496" y="388" width="388" height="150" rx="26" fill="#3F5F45"/>
  <rect x="116" y="578" width="768" height="250" rx="28" fill="#F6F1E8"/>
  <rect x="116" y="868" width="362" height="286" rx="28" fill="#3F5F45"/>
  <rect x="516" y="868" width="368" height="286" rx="28" fill="#D8CFC0"/>
  <path d="M170 250C221 186 314 173 368 236C426 303 398 425 296 454C187 485 108 327 170 250Z" fill="#101114"/>
  <path d="M556 216H804M556 272H754M556 444H762M556 496H704" stroke="#F6F1E8" stroke-width="22" stroke-linecap="round"/>
  <path d="M178 658H620M178 718H790M178 778H512" stroke="#101114" stroke-width="22" stroke-linecap="round"/>
  <path d="M178 948H360M178 1010H404M178 1072H308" stroke="#F6F1E8" stroke-width="20" stroke-linecap="round"/>
  <path d="M576 948H760M576 1010H812M576 1072H716" stroke="#101114" stroke-width="20" stroke-linecap="round"/>
  <circle cx="842" cy="210" r="26" fill="#F6F1E8"/>
  <circle cx="842" cy="1072" r="30" fill="#B16645"/>
</svg>
